<?xml version="1.0" standalone="no"?>
<!DOCTYPE svg PUBLIC "-//W3C//DTD SVG 20010904//EN"
 "http://www.w3.org/TR/2001/REC-SVG-20010904/DTD/svg10.dtd">
<svg version="1.0" xmlns="http://www.w3.org/2000/svg"
 width="200.000000pt" height="200.000000pt" viewBox="0 0 200.000000 200.000000"
 preserveAspectRatio="xMidYMid meet">

<g transform="translate(0.000000,200.000000) scale(0.100000,-0.100000)"
fill="#000000" stroke="none">
<path d="M775 1280 c-27 -16 -44 -30 -36 -30 8 0 24 8 35 18 11 9 4 -3 -17
-27 -39 -46 -46 -64 -24 -55 10 3 12 -5 9 -32 -3 -28 -1 -35 8 -29 10 6 12 0
7 -28 -3 -20 -1 -37 4 -39 10 -3 -17 -93 -45 -147 l-17 -32 51 37 c27 20 50
40 50 46 0 5 20 29 45 53 35 34 46 53 51 87 3 24 16 58 28 75 19 30 25 33 76
33 51 0 57 -3 76 -33 12 -17 25 -51 28 -75 5 -34 16 -53 51 -87 25 -24 45 -48
45 -53 0 -6 23 -26 50 -46 l51 -37 -17 32 c-28 54 -55 144 -45 147 5 2 7 19 4
39 -5 28 -3 34 7 28 9 -6 11 1 8 29 -3 27 -1 35 9 32 22 -9 15 9 -24 55 -21
24 -28 36 -17 27 11 -10 27 -18 35 -18 8 0 -8 14 -36 30 -27 16 -57 29 -65 29
-10 0 -8 -3 5 -9 16 -7 17 -9 3 -9 -10 -1 -16 -9 -15 -21 2 -23 2 -23 30 -9
12 7 19 8 14 4 -10 -11 23 -46 36 -38 5 3 7 1 4 -5 -7 -11 -32 -11 -43 1 -16
15 -26 6 -12 -10 11 -14 13 -31 7 -78 l-7 -60 2 62 c1 38 -2 60 -7 56 -6 -3
-7 -1 -3 5 3 6 2 13 -4 17 -6 4 -8 11 -5 16 4 5 1 9 -5 9 -7 0 -9 -12 -6 -30
2 -17 1 -28 -4 -25 -5 3 -10 0 -12 -6 -2 -6 -2 20 0 58 4 67 3 70 -18 68 -29
-2 -48 -29 -43 -58 4 -21 2 -22 -77 -24 -82 -1 -82 -1 -77 23 5 30 -14 57 -43
59 -21 2 -22 -1 -18 -68 2 -38 2 -64 0 -58 -2 6 -7 9 -12 6 -5 -3 -6 8 -4 25
3 18 1 30 -6 30 -6 0 -9 -4 -5 -9 3 -5 1 -12 -5 -16 -6 -4 -7 -11 -4 -17 4 -6
3 -8 -3 -5 -5 4 -8 -18 -7 -56 l2 -62 -7 60 c-6 47 -4 64 7 78 9 10 11 17 4
17 -6 0 -13 -4 -16 -9 -7 -11 -32 -9 -43 4 -4 4 -3 5 3 2 14 -8 47 26 37 38
-5 4 2 3 14 -4 28 -14 28 -14 30 9 1 12 -5 20 -15 21 -14 0 -13 2 3 9 13 6 15
9 5 9 -8 0 -37 -13 -65 -29z m133 -16 c-3 -14 -5 -12 -10 9 -3 19 -2 25 4 19
6 -6 8 -18 6 -28z m194 9 c-3 -16 -7 -22 -10 -15 -4 13 4 42 11 42 2 0 2 -12
-1 -27z m-335 -95 c-3 -8 -6 -5 -6 6 -1 11 2 17 5 13 3 -3 4 -12 1 -19z m470
0 c-3 -8 -6 -5 -6 6 -1 11 2 17 5 13 3 -3 4 -12 1 -19z m-440 -60 c-2 -13 -4
-5 -4 17 -1 22 1 32 4 23 2 -10 2 -28 0 -40z m40 -15 c-2 -16 -4 -5 -4 22 0
28 2 40 4 28 2 -13 2 -35 0 -50z m330 5 c-2 -13 -4 -3 -4 22 0 25 2 35 4 23 2
-13 2 -33 0 -45z m40 10 c-2 -13 -4 -5 -4 17 -1 22 1 32 4 23 2 -10 2 -28 0
-40z m-350 -10 c-2 -13 -4 -5 -4 17 -1 22 1 32 4 23 2 -10 2 -28 0 -40z m30
30 c-3 -8 -6 -5 -6 6 -1 11 2 17 5 13 3 -3 4 -12 1 -19z m260 -30 c-2 -13 -4
-5 -4 17 -1 22 1 32 4 23 2 -10 2 -28 0 -40z"/>
<path d="M799 1233 c-13 -17 -13 -17 6 -3 11 8 22 16 24 17 2 2 0 3 -6 3 -6 0
-17 -8 -24 -17z"/>
<path d="M1171 1247 c2 -1 13 -9 24 -17 19 -14 19 -14 6 3 -7 9 -18 17 -24 17
-6 0 -8 -1 -6 -3z"/>
<path d="M938 1165 c-23 -31 -22 -81 2 -125 l19 -35 1 93 c0 50 -1 92 -2 92
-2 0 -11 -11 -20 -25z"/>
<path d="M1040 1099 l1 -94 19 35 c25 46 25 95 0 127 l-20 26 0 -94z"/>
<path d="M957 969 c12 -12 24 -21 27 -18 2 2 -8 13 -22 23 l-27 19 22 -24z"/>
<path d="M1031 970 c-13 -11 -19 -20 -14 -20 6 0 18 9 28 20 23 25 17 25 -14
0z"/>
<path d="M867 952 c-25 -27 -21 -36 5 -12 12 11 19 22 16 25 -2 3 -12 -3 -21
-13z"/>
<path d="M1110 963 c0 -7 8 -16 17 -22 16 -8 15 -11 -7 -31 -23 -19 -23 -20
-3 -11 34 17 37 31 14 54 -11 12 -21 16 -21 10z"/>
<path d="M870 916 c0 -2 8 -10 18 -17 15 -13 16 -12 3 4 -13 16 -21 21 -21 13z"/>
<path d="M910 886 c0 -2 7 -7 16 -10 8 -3 12 -2 9 4 -6 10 -25 14 -25 6z"/>
<path d="M1065 880 c-3 -6 1 -7 9 -4 18 7 21 14 7 14 -6 0 -13 -4 -16 -10z"/>
<path d="M957 868 c2 -5 22 -8 43 -8 21 0 41 3 43 8 3 4 -17 7 -43 7 -26 0
-46 -3 -43 -7z"/>
<path d="M346 755 c-3 -9 -5 -31 -5 -48 l2 -32 6 35 6 35 23 -55 c18 -42 25
-51 32 -40 5 8 10 20 10 25 0 6 -4 4 -9 -3 -5 -9 -16 5 -33 43 -18 40 -27 51
-32 40z"/>
<path d="M691 760 c0 -8 13 -39 28 -69 23 -44 29 -50 35 -35 4 10 4 15 0 11
-4 -3 -19 19 -35 51 -15 31 -28 50 -28 42z"/>
<path d="M446 745 c-3 -9 -2 -13 4 -10 6 4 10 -14 10 -44 0 -28 4 -51 10 -51
10 0 2 100 -10 113 -4 5 -10 1 -14 -8z"/>
<path d="M786 744 c-3 -8 -2 -12 4 -9 6 4 10 -9 10 -32 0 -21 5 -45 11 -53 8
-11 9 -5 5 25 -3 22 -6 50 -6 63 0 25 -15 30 -24 6z"/>
<path d="M1003 700 c0 -36 2 -53 4 -37 4 24 8 27 43 27 35 0 39 -3 43 -27 2
-16 4 1 4 37 0 36 -2 50 -4 33 -4 -31 -7 -33 -43 -33 -36 0 -39 2 -43 33 -2
17 -4 3 -4 -33z"/>
<path d="M1157 748 c-26 -21 -31 -61 -10 -84 10 -11 15 -15 11 -10 -14 18 -8
69 9 88 19 21 14 24 -10 6z"/>
<path d="M1454 706 c1 -43 5 -61 16 -64 12 -4 13 -2 3 9 -6 8 -14 37 -16 64
-4 45 -4 44 -3 -9z"/>
<path d="M1542 714 c-1 -27 -6 -55 -12 -62 -5 -7 -3 -6 6 1 11 10 14 27 11 63
l-3 49 -2 -51z"/>
<path d="M1590 700 c0 -33 4 -60 10 -60 5 0 8 27 7 60 -3 78 -17 78 -17 0z"/>
<path d="M519 726 c-14 -29 -5 -72 16 -80 13 -4 12 -1 -2 20 -13 21 -15 32 -6
55 14 35 7 39 -8 5z"/>
<path d="M618 733 c16 -30 15 -53 -5 -75 -20 -22 -11 -24 11 -2 21 20 20 68
-1 85 -15 13 -15 12 -5 -8z"/>
<path d="M878 695 c-14 -30 -22 -55 -18 -55 5 0 16 20 25 45 20 51 30 50 46
-5 7 -22 16 -40 21 -40 4 0 8 2 8 5 0 8 -50 105 -53 105 -2 0 -15 -25 -29 -55z"/>
<path d="M1293 724 c-15 -23 -15 -29 -2 -52 8 -14 21 -27 29 -29 10 -3 9 -1
-2 7 -21 13 -24 70 -6 88 7 7 9 12 5 12 -3 0 -14 -12 -24 -26z"/>
<path d="M1393 736 c14 -19 7 -75 -10 -85 -10 -6 -13 -11 -6 -11 13 0 43 38
43 56 0 7 -8 20 -17 31 -10 10 -15 14 -10 9z"/>
<path d="M1647 730 c3 -13 0 -20 -8 -20 -10 -1 -8 -4 4 -11 20 -12 23 -45 5
-52 -10 -4 -10 -6 0 -6 17 -1 26 25 17 47 -5 9 -7 24 -6 34 1 9 -2 19 -8 22
-5 3 -7 -3 -4 -14z"/>
<path d="M683 695 c0 -22 2 -30 4 -17 2 12 2 30 0 40 -3 9 -5 -1 -4 -23z"/>
<path d="M1238 665 c-4 -20 -3 -23 8 -14 16 13 19 39 5 39 -5 0 -11 -11 -13
-25z"/>
<path d="M331 654 c0 -11 3 -14 6 -6 3 7 2 16 -1 19 -3 4 -6 -2 -5 -13z"/>
</g>
</svg>
